STARTFONT 2.1
FONT -Fondu-Times-Medium-R-Normal--18-170-75-75-P-93-MacRoman-1
SIZE 17 75 75
FONTBOUNDINGBOX 18 18 -1 -4
COMMENT Created by Fondu from a mac NFNT/FONT resource
STARTPROPERTIES 17
FOUNDRY "Fondu"
FAMILY_NAME "Times"
WEIGHT_NAME "Medium"
SLANT "R"
SETWIDTH_NAME "Normal"
ADD_STYLE_NAME ""
PIXEL_SIZE 18
POINT_SIZE 170
RESOLUTION_X 75
RESOLUTION_Y 75
SPACING "P"
AVERAGE_WIDTH 93
CHARSET_REGISTRY "MacRoman"
CHARSET_ENCODING "1"
FONT_ASCENT 14
FONT_DESCENT 4
FACE_NAME "Times"
ENDPROPERTIES
CHARS 223
STARTCHAR space
ENCODING 32
SWIDTH 250 0
DWIDTH 5 0
BBX 0 0 0 -4
BITMAP
ENDCHAR
STARTCHAR exclam
ENCODING 33
SWIDTH 333 0
DWIDTH 6 0
BBX 2 12 2 0
BITMAP
C0
C0
C0
C0
C0
C0
C0
C0
00
00
C0
C0
ENDCHAR
STARTCHAR quotedbl
ENCODING 34
SWIDTH 408 0
DWIDTH 7 0
BBX 4 4 1 8
BITMAP
90
90
90
90
ENDCHAR
STARTCHAR numbersign
ENCODING 35
SWIDTH 500 0
DWIDTH 9 0
BBX 8 11 0 0
BITMAP
12
12
12
7F
24
24
24
FE
48
48
48
ENDCHAR
STARTCHAR dollar
ENCODING 36
SWIDTH 500 0
DWIDTH 9 0
BBX 7 15 1 -2
BITMAP
10
7C
96
92
D0
70
38
1C
16
12
92
D6
7C
10
10
ENDCHAR
STARTCHAR percent
ENCODING 37
SWIDTH 833 0
DWIDTH 15 0
BBX 13 12 1 0
BITMAP
3BE0
6440
C4C0
C580
C900
7300
0670
04C8
0D88
1988
1990
30E0
ENDCHAR
STARTCHAR ampersand
ENCODING 38
SWIDTH 778 0
DWIDTH 14 0
BBX 12 12 1 0
BITMAP
0E00
1900
1900
1A00
1C00
38F0
6C60
CC40
C680
C310
E7F0
78E0
ENDCHAR
STARTCHAR quotesingle
ENCODING 39
SWIDTH 180 0
DWIDTH 3 0
BBX 1 4 1 8
BITMAP
80
80
80
80
ENDCHAR
STARTCHAR parenleft
ENCODING 40
SWIDTH 333 0
DWIDTH 6 0
BBX 4 16 1 -4
BITMAP
10
20
20
40
40
C0
C0
C0
C0
C0
C0
40
40
20
20
10
ENDCHAR
STARTCHAR parenright
ENCODING 41
SWIDTH 333 0
DWIDTH 6 0
BBX 4 16 1 -4
BITMAP
80
40
40
20
20
30
30
30
30
30
30
20
20
40
40
80
ENDCHAR
STARTCHAR asterisk
ENCODING 42
SWIDTH 500 0
DWIDTH 9 0
BBX 7 7 1 5
BITMAP
10
92
54
38
54
92
10
ENDCHAR
STARTCHAR plus
ENCODING 43
SWIDTH 564 0
DWIDTH 10 0
BBX 9 9 0 0
BITMAP
0800
0800
0800
0800
FF80
0800
0800
0800
0800
ENDCHAR
STARTCHAR comma
ENCODING 44
SWIDTH 250 0
DWIDTH 6 0
BBX 2 5 2 -3
BITMAP
C0
C0
40
40
80
ENDCHAR
STARTCHAR hyphen
ENCODING 45
SWIDTH 333 0
DWIDTH 6 0
BBX 5 1 0 4
BITMAP
F8
ENDCHAR
STARTCHAR period
ENCODING 46
SWIDTH 250 0
DWIDTH 6 0
BBX 2 2 2 0
BITMAP
C0
C0
ENDCHAR
STARTCHAR slash
ENCODING 47
SWIDTH 278 0
DWIDTH 5 0
BBX 4 12 0 0
BITMAP
10
10
10
20
20
20
40
40
40
80
80
80
ENDCHAR
STARTCHAR zero
ENCODING 48
SWIDTH 500 0
DWIDTH 9 0
BBX 8 12 0 0
BITMAP
3C
66
42
C3
C3
C3
C3
C3
C3
42
66
3C
ENDCHAR
STARTCHAR one
ENCODING 49
SWIDTH 500 0
DWIDTH 9 0
BBX 6 12 1 0
BITMAP
10
30
70
B0
30
30
30
30
30
30
30
FC
ENDCHAR
STARTCHAR two
ENCODING 50
SWIDTH 500 0
DWIDTH 9 0
BBX 8 12 0 0
BITMAP
3C
7E
87
03
03
02
04
08
10
21
7F
FE
ENDCHAR
STARTCHAR three
ENCODING 51
SWIDTH 500 0
DWIDTH 9 0
BBX 8 12 0 0
BITMAP
3C
4E
86
06
0C
1E
07
03
03
C3
E6
7C
ENDCHAR
STARTCHAR four
ENCODING 52
SWIDTH 500 0
DWIDTH 9 0
BBX 8 12 0 0
BITMAP
02
06
0E
1E
36
66
C6
FF
06
06
06
06
ENDCHAR
STARTCHAR five
ENCODING 53
SWIDTH 500 0
DWIDTH 9 0
BBX 8 12 0 0
BITMAP
3F
3E
60
78
FC
06
02
02
02
C2
E4
78
ENDCHAR
STARTCHAR six
ENCODING 54
SWIDTH 500 0
DWIDTH 9 0
BBX 8 12 0 0
BITMAP
0E
30
60
60
DC
E6
C3
C3
C3
C3
66
3C
ENDCHAR
STARTCHAR seven
ENCODING 55
SWIDTH 500 0
DWIDTH 9 0
BBX 8 12 0 0
BITMAP
7F
7F
81
01
02
02
04
04
08
08
10
10
ENDCHAR
STARTCHAR eight
ENCODING 56
SWIDTH 500 0
DWIDTH 9 0
BBX 7 12 1 0
BITMAP
7C
CE
C6
E4
78
38
7C
CE
86
86
CE
7C
ENDCHAR
STARTCHAR nine
ENCODING 57
SWIDTH 500 0
DWIDTH 9 0
BBX 8 12 0 0
BITMAP
3C
66
C3
C3
C3
C3
67
3B
02
06
0C
70
ENDCHAR
STARTCHAR colon
ENCODING 58
SWIDTH 278 0
DWIDTH 5 0
BBX 2 8 1 0
BITMAP
C0
C0
00
00
00
00
C0
C0
ENDCHAR
STARTCHAR semicolon
ENCODING 59
SWIDTH 278 0
DWIDTH 5 0
BBX 2 11 2 -3
BITMAP
C0
C0
00
00
00
00
C0
C0
40
40
80
ENDCHAR
STARTCHAR less
ENCODING 60
SWIDTH 564 0
DWIDTH 10 0
BBX 8 7 1 1
BITMAP
03
0C
30
C0
30
0C
03
ENDCHAR
STARTCHAR equal
ENCODING 61
SWIDTH 564 0
DWIDTH 10 0
BBX 9 5 0 2
BITMAP
FF80
0000
0000
0000
FF80
ENDCHAR
STARTCHAR greater
ENCODING 62
SWIDTH 564 0
DWIDTH 10 0
BBX 8 7 1 1
BITMAP
C0
30
0C
03
0C
30
C0
ENDCHAR
STARTCHAR question
ENCODING 63
SWIDTH 444 0
DWIDTH 8 0
BBX 6 12 1 0
BITMAP
78
CC
CC
0C
0C
18
10
20
20
00
30
30
ENDCHAR
STARTCHAR at
ENCODING 64
SWIDTH 921 0
DWIDTH 17 0
BBX 15 15 1 -3
BITMAP
07E0
1C18
300C
61E4
6732
C632
CC22
CC62
CC64
CEAC
6718
6000
3000
1C30
07C0
ENDCHAR
STARTCHAR A
ENCODING 65
SWIDTH 722 0
DWIDTH 13 0
BBX 12 12 0 0
BITMAP
0200
0200
0700
0700
0980
0980
10C0
1FC0
20C0
2060
4060
E0F0
ENDCHAR
STARTCHAR B
ENCODING 66
SWIDTH 667 0
DWIDTH 12 0
BBX 10 12 1 0
BITMAP
FE00
6180
60C0
60C0
6180
7F00
6180
60C0
60C0
60C0
6180
FE00
ENDCHAR
STARTCHAR C
ENCODING 67
SWIDTH 667 0
DWIDTH 12 0
BBX 11 12 0 0
BITMAP
0F20
30E0
6060
6020
C000
C000
C000
C000
6000
6020
3060
0F80
ENDCHAR
STARTCHAR D
ENCODING 68
SWIDTH 722 0
DWIDTH 13 0
BBX 11 12 1 0
BITMAP
FE00
6180
60C0
60C0
6060
6060
6060
6060
60C0
60C0
6180
FE00
ENDCHAR
STARTCHAR E
ENCODING 69
SWIDTH 611 0
DWIDTH 11 0
BBX 9 12 1 0
BITMAP
FF80
6180
6080
6000
6100
7F00
6100
6000
6000
6080
6180
FF80
ENDCHAR
STARTCHAR F
ENCODING 70
SWIDTH 556 0
DWIDTH 10 0
BBX 9 12 0 0
BITMAP
FF80
6180
6080
6000
6100
7F00
6100
6000
6000
6000
6000
F800
ENDCHAR
STARTCHAR G
ENCODING 71
SWIDTH 722 0
DWIDTH 13 0
BBX 12 12 0 0
BITMAP
0F20
30E0
6060
6020
C000
C0F0
C060
C060
6060
6060
30C0
0F80
ENDCHAR
STARTCHAR H
ENCODING 72
SWIDTH 722 0
DWIDTH 13 0
BBX 11 12 1 0
BITMAP
F1E0
60C0
60C0
60C0
60C0
7FC0
60C0
60C0
60C0
60C0
60C0
F1E0
ENDCHAR
STARTCHAR I
ENCODING 73
SWIDTH 333 0
DWIDTH 6 0
BBX 4 12 1 0
BITMAP
F0
60
60
60
60
60
60
60
60
60
60
F0
ENDCHAR
STARTCHAR J
ENCODING 74
SWIDTH 389 0
DWIDTH 7 0
BBX 7 12 0 0
BITMAP
3E
0C
0C
0C
0C
0C
0C
0C
0C
CC
CC
78
ENDCHAR
STARTCHAR K
ENCODING 75
SWIDTH 722 0
DWIDTH 13 0
BBX 11 12 1 0
BITMAP
F3C0
6100
6200
6400
6800
7000
7800
6C00
6600
6300
6180
F3E0
ENDCHAR
STARTCHAR L
ENCODING 76
SWIDTH 611 0
DWIDTH 11 0
BBX 10 12 0 0
BITMAP
F000
6000
6000
6000
6000
6000
6000
6000
6040
60C0
61C0
FF80
ENDCHAR
STARTCHAR M
ENCODING 77
SWIDTH 889 0
DWIDTH 16 0
BBX 14 12 1 0
BITMAP
E01C
7038
7038
5858
5858
4C98
4C98
4D18
4718
4718
4218
E23C
ENDCHAR
STARTCHAR N
ENCODING 78
SWIDTH 722 0
DWIDTH 13 0
BBX 11 12 1 0
BITMAP
E0E0
7040
7040
5840
4C40
4E40
4640
4340
41C0
41C0
40C0
E040
ENDCHAR
STARTCHAR O
ENCODING 79
SWIDTH 722 0
DWIDTH 13 0
BBX 12 12 0 0
BITMAP
0F00
30C0
6060
6060
C030
C030
C030
C030
6060
6060
30C0
0F00
ENDCHAR
STARTCHAR P
ENCODING 80
SWIDTH 556 0
DWIDTH 10 0
BBX 9 12 0 0
BITMAP
FC00
6300
6180
6180
6180
6300
7C00
6000
6000
6000
6000
F000
ENDCHAR
STARTCHAR Q
ENCODING 81
SWIDTH 722 0
DWIDTH 13 0
BBX 12 15 0 -3
BITMAP
0F00
30C0
6060
6060
C030
C030
C030
C030
6060
6060
30C0
0F00
0300
0180
0060
ENDCHAR
STARTCHAR R
ENCODING 82
SWIDTH 667 0
DWIDTH 12 0
BBX 11 12 0 0
BITMAP
FC00
6300
6180
6180
6180
6300
7C00
6C00
6600
6300
61C0
F8E0
ENDCHAR
STARTCHAR S
ENCODING 83
SWIDTH 556 0
DWIDTH 10 0
BBX 8 12 1 0
BITMAP
39
47
C3
C1
F0
7C
1E
07
83
C3
E2
9C
ENDCHAR
STARTCHAR T
ENCODING 84
SWIDTH 611 0
DWIDTH 11 0
BBX 10 12 0 0
BITMAP
FFC0
CCC0
8C40
0C00
0C00
0C00
0C00
0C00
0C00
0C00
0C00
1E00
ENDCHAR
STARTCHAR U
ENCODING 85
SWIDTH 722 0
DWIDTH 13 0
BBX 11 12 1 0
BITMAP
F0E0
6040
6040
6040
6040
6040
6040
6040
6040
70C0
3980
1F00
ENDCHAR
STARTCHAR V
ENCODING 86
SWIDTH 722 0
DWIDTH 13 0
BBX 12 12 0 0
BITMAP
F870
7020
3020
3840
1840
1C80
0C80
0D00
0700
0700
0200
0200
ENDCHAR
STARTCHAR W
ENCODING 87
SWIDTH 944 0
DWIDTH 17 0
BBX 16 12 0 0
BITMAP
F7CF
6304
6304
3188
3188
19C8
1AD0
1AD0
0E70
0E70
0420
0420
ENDCHAR
STARTCHAR X
ENCODING 88
SWIDTH 722 0
DWIDTH 13 0
BBX 10 12 1 0
BITMAP
F1C0
6080
3100
3200
1A00
0C00
0C00
1600
2300
2300
4180
E3C0
ENDCHAR
STARTCHAR Y
ENCODING 89
SWIDTH 722 0
DWIDTH 13 0
BBX 10 12 1 0
BITMAP
F1C0
6080
3100
3100
1A00
1E00
0C00
0C00
0C00
0C00
0C00
1E00
ENDCHAR
STARTCHAR Z
ENCODING 90
SWIDTH 611 0
DWIDTH 11 0
BBX 10 12 0 0
BITMAP
FFC0
C180
8300
0300
0600
0C00
0C00
1800
3000
3040
60C0
FFC0
ENDCHAR
STARTCHAR bracketleft
ENCODING 91
SWIDTH 333 0
DWIDTH 6 0
BBX 4 16 1 -4
BITMAP
F0
80
80
80
80
80
80
80
80
80
80
80
80
80
80
F0
ENDCHAR
STARTCHAR backslash
ENCODING 92
SWIDTH 278 0
DWIDTH 5 0
BBX 4 12 0 0
BITMAP
80
80
80
40
40
40
20
20
20
10
10
10
ENDCHAR
STARTCHAR bracketright
ENCODING 93
SWIDTH 333 0
DWIDTH 6 0
BBX 4 16 0 -4
BITMAP
F0
10
10
10
10
10
10
10
10
10
10
10
10
10
10
F0
ENDCHAR
STARTCHAR asciicircum
ENCODING 94
SWIDTH 469 0
DWIDTH 8 0
BBX 5 6 2 6
BITMAP
20
20
50
50
88
88
ENDCHAR
STARTCHAR underscore
ENCODING 95
SWIDTH 500 0
DWIDTH 9 0
BBX 9 1 0 -4
BITMAP
FF80
ENDCHAR
STARTCHAR grave
ENCODING 96
SWIDTH 333 0
DWIDTH 6 0
BBX 3 3 1 9
BITMAP
80
40
20
ENDCHAR
STARTCHAR a
ENCODING 97
SWIDTH 444 0
DWIDTH 8 0
BBX 8 8 0 0
BITMAP
78
CC
8C
1C
6C
CC
DD
66
ENDCHAR
STARTCHAR b
ENCODING 98
SWIDTH 500 0
DWIDTH 9 0
BBX 8 12 0 0
BITMAP
60
E0
60
60
6C
7E
67
63
63
63
62
1C
ENDCHAR
STARTCHAR c
ENCODING 99
SWIDTH 444 0
DWIDTH 8 0
BBX 7 8 0 0
BITMAP
3C
66
C6
C0
C0
C2
66
3C
ENDCHAR
STARTCHAR d
ENCODING 100
SWIDTH 500 0
DWIDTH 9 0
BBX 7 12 1 0
BITMAP
06
0E
06
06
36
4E
C6
C6
C6
E6
7E
32
ENDCHAR
STARTCHAR e
ENCODING 101
SWIDTH 444 0
DWIDTH 8 0
BBX 7 8 0 0
BITMAP
38
44
C6
FE
C0
E2
7C
38
ENDCHAR
STARTCHAR f
ENCODING 102
SWIDTH 333 0
DWIDTH 6 0
BBX 6 12 0 0
BITMAP
38
64
60
60
F8
60
60
60
60
60
60
F0
ENDCHAR
STARTCHAR g
ENCODING 103
SWIDTH 500 0
DWIDTH 9 0
BBX 9 12 0 -4
BITMAP
3E80
6700
6300
6300
7300
3E00
4000
7E00
3F00
C300
C200
7C00
ENDCHAR
STARTCHAR h
ENCODING 104
SWIDTH 500 0
DWIDTH 9 0
BBX 9 12 0 0
BITMAP
6000
E000
6000
6000
6E00
7300
6300
6300
6300
6300
6300
F780
ENDCHAR
STARTCHAR i
ENCODING 105
SWIDTH 278 0
DWIDTH 5 0
BBX 4 12 0 0
BITMAP
60
60
00
00
60
E0
60
60
60
60
60
F0
ENDCHAR
STARTCHAR j
ENCODING 106
SWIDTH 278 0
DWIDTH 5 0
BBX 3 16 0 -4
BITMAP
60
60
00
00
60
E0
60
60
60
60
60
60
60
60
60
C0
ENDCHAR
STARTCHAR k
ENCODING 107
SWIDTH 500 0
DWIDTH 9 0
BBX 9 12 0 0
BITMAP
6000
E000
6000
6000
6F00
6400
6800
7800
6C00
6600
6300
F780
ENDCHAR
STARTCHAR l
ENCODING 108
SWIDTH 278 0
DWIDTH 5 0
BBX 4 12 0 0
BITMAP
60
E0
60
60
60
60
60
60
60
60
60
F0
ENDCHAR
STARTCHAR m
ENCODING 109
SWIDTH 778 0
DWIDTH 14 0
BBX 14 8 0 0
BITMAP
2E70
F398
6318
6318
6318
6318
6318
F7BC
ENDCHAR
STARTCHAR n
ENCODING 110
SWIDTH 500 0
DWIDTH 9 0
BBX 9 8 0 0
BITMAP
2E00
F300
6300
6300
6300
6300
6300
F780
ENDCHAR
STARTCHAR o
ENCODING 111
SWIDTH 500 0
DWIDTH 9 0
BBX 8 8 0 0
BITMAP
3C
66
C3
C3
C3
C3
66
3C
ENDCHAR
STARTCHAR p
ENCODING 112
SWIDTH 500 0
DWIDTH 9 0
BBX 8 12 0 -4
BITMAP
2C
F2
63
63
63
67
7E
6C
60
60
60
F0
ENDCHAR
STARTCHAR q
ENCODING 113
SWIDTH 500 0
DWIDTH 9 0
BBX 8 12 0 -4
BITMAP
3A
46
C6
C6
C6
E6
7E
36
06
06
06
0F
ENDCHAR
STARTCHAR r
ENCODING 114
SWIDTH 333 0
DWIDTH 6 0
BBX 6 8 0 0
BITMAP
5C
EC
60
60
60
60
60
F0
ENDCHAR
STARTCHAR s
ENCODING 115
SWIDTH 389 0
DWIDTH 7 0
BBX 6 8 0 0
BITMAP
78
CC
E4
70
38
9C
CC
78
ENDCHAR
STARTCHAR t
ENCODING 116
SWIDTH 278 0
DWIDTH 5 0
BBX 5 10 0 0
BITMAP
20
60
F0
60
60
60
60
60
68
30
ENDCHAR
STARTCHAR u
ENCODING 117
SWIDTH 500 0
DWIDTH 9 0
BBX 9 8 0 0
BITMAP
E700
6300
6300
6300
6300
6300
6780
3B00
ENDCHAR
STARTCHAR v
ENCODING 118
SWIDTH 500 0
DWIDTH 9 0
BBX 9 8 0 0
BITMAP
F380
6100
3200
3200
1C00
1C00
0800
0800
ENDCHAR
STARTCHAR w
ENCODING 119
SWIDTH 722 0
DWIDTH 13 0
BBX 13 8 0 0
BITMAP
F778
6620
3320
3740
1DC0
1DC0
0880
0880
ENDCHAR
STARTCHAR x
ENCODING 120
SWIDTH 500 0
DWIDTH 9 0
BBX 8 8 0 0
BITMAP
F7
62
34
18
18
2C
46
EF
ENDCHAR
STARTCHAR y
ENCODING 121
SWIDTH 500 0
DWIDTH 9 0
BBX 9 12 0 -4
BITMAP
F380
6100
6100
3200
3200
1C00
1C00
0800
0800
1000
D000
E000
ENDCHAR
STARTCHAR z
ENCODING 122
SWIDTH 444 0
DWIDTH 8 0
BBX 6 8 1 0
BITMAP
FC
8C
18
30
30
60
C4
FC
ENDCHAR
STARTCHAR braceleft
ENCODING 123
SWIDTH 480 0
DWIDTH 9 0
BBX 4 16 2 -4
BITMAP
30
40
40
40
40
40
40
80
40
40
40
40
40
40
40
30
ENDCHAR
STARTCHAR bar
ENCODING 124
SWIDTH 200 0
DWIDTH 4 0
BBX 1 16 1 -4
BITMAP
80
80
80
80
80
80
80
80
80
80
80
80
80
80
80
80
ENDCHAR
STARTCHAR braceright
ENCODING 125
SWIDTH 480 0
DWIDTH 9 0
BBX 4 16 2 -4
BITMAP
C0
20
20
20
20
20
20
10
20
20
20
20
20
20
20
C0
ENDCHAR
STARTCHAR asciitilde
ENCODING 126
SWIDTH 541 0
DWIDTH 10 0
BBX 8 2 1 5
BITMAP
71
8E
ENDCHAR
STARTCHAR Adieresis
ENCODING 128
SWIDTH 722 0
DWIDTH 13 0
BBX 12 14 0 0
BITMAP
0880
0000
0200
0200
0700
0700
0980
0980
10C0
1FC0
20C0
2060
4060
E0F0
ENDCHAR
STARTCHAR Aring
ENCODING 129
SWIDTH 722 0
DWIDTH 13 0
BBX 12 14 0 0
BITMAP
0700
0880
0700
0200
0700
0700
0980
0980
10C0
1FC0
20C0
2060
4060
E0F0
ENDCHAR
STARTCHAR Ccedilla
ENCODING 130
SWIDTH 667 0
DWIDTH 12 0
BBX 11 16 0 -4
BITMAP
0F20
30E0
6060
6020
C000
C000
C000
C000
6000
6020
3060
0F80
0200
0100
0100
0600
ENDCHAR
STARTCHAR Eacute
ENCODING 131
SWIDTH 611 0
DWIDTH 11 0
BBX 9 14 1 0
BITMAP
0400
0800
FF80
6180
6080
6000
6100
7F00
6100
6000
6000
6080
6180
FF80
ENDCHAR
STARTCHAR Ntilde
ENCODING 132
SWIDTH 722 0
DWIDTH 13 0
BBX 11 14 1 0
BITMAP
0C80
1300
E0E0
7040
7040
5840
4C40
4640
4640
4340
41C0
41C0
40C0
E040
ENDCHAR
STARTCHAR Odieresis
ENCODING 133
SWIDTH 722 0
DWIDTH 13 0
BBX 12 14 0 0
BITMAP
0900
0000
0F00
30C0
6060
6060
C030
C030
C030
C030
6060
6060
30C0
0F00
ENDCHAR
STARTCHAR Udieresis
ENCODING 134
SWIDTH 722 0
DWIDTH 13 0
BBX 11 14 1 0
BITMAP
1100
0000
F0E0
6040
6040
6040
6040
6040
6040
6040
6040
70C0
3980
1F00
ENDCHAR
STARTCHAR aacute
ENCODING 135
SWIDTH 444 0
DWIDTH 8 0
BBX 8 11 0 0
BITMAP
10
20
00
78
CC
8C
1C
6C
CC
DD
66
ENDCHAR
STARTCHAR agrave
ENCODING 136
SWIDTH 444 0
DWIDTH 8 0
BBX 8 11 0 0
BITMAP
20
10
00
78
CC
8C
1C
6C
CC
DD
66
ENDCHAR
STARTCHAR acircumflex
ENCODING 137
SWIDTH 444 0
DWIDTH 8 0
BBX 8 12 0 0
BITMAP
10
28
44
00
78
CC
8C
1C
6C
CC
DD
66
ENDCHAR
STARTCHAR adieresis
ENCODING 138
SWIDTH 444 0
DWIDTH 8 0
BBX 8 10 0 0
BITMAP
48
00
78
CC
8C
1C
6C
CC
DD
66
ENDCHAR
STARTCHAR atilde
ENCODING 139
SWIDTH 444 0
DWIDTH 8 0
BBX 8 11 0 0
BITMAP
64
98
00
78
CC
8C
1C
6C
CC
DD
66
ENDCHAR
STARTCHAR aring
ENCODING 140
SWIDTH 444 0
DWIDTH 8 0
BBX 8 13 0 0
BITMAP
30
48
48
30
00
78
CC
8C
1C
6C
CC
DD
66
ENDCHAR
STARTCHAR ccedilla
ENCODING 141
SWIDTH 444 0
DWIDTH 8 0
BBX 7 11 0 -3
BITMAP
3C
66
C6
C0
C0
C2
66
3C
08
08
10
ENDCHAR
STARTCHAR eacute
ENCODING 142
SWIDTH 444 0
DWIDTH 8 0
BBX 7 11 0 0
BITMAP
08
10
00
38
44
C6
FE
C0
E2
7C
38
ENDCHAR
STARTCHAR egrave
ENCODING 143
SWIDTH 444 0
DWIDTH 8 0
BBX 7 11 0 0
BITMAP
20
10
00
38
44
C6
FE
C0
E2
7C
38
ENDCHAR
STARTCHAR ecircumflex
ENCODING 144
SWIDTH 444 0
DWIDTH 8 0
BBX 7 12 0 0
BITMAP
10
28
44
00
38
44
C6
FE
C0
E2
7C
38
ENDCHAR
STARTCHAR edieresis
ENCODING 145
SWIDTH 444 0
DWIDTH 8 0
BBX 7 10 0 0
BITMAP
28
00
38
44
C6
FE
C0
E2
7C
38
ENDCHAR
STARTCHAR iacute
ENCODING 146
SWIDTH 278 0
DWIDTH 5 0
BBX 4 12 0 0
BITMAP
20
40
00
00
60
E0
60
60
60
60
60
F0
ENDCHAR
STARTCHAR igrave
ENCODING 147
SWIDTH 278 0
DWIDTH 5 0
BBX 4 12 0 0
BITMAP
40
20
00
00
60
E0
60
60
60
60
60
F0
ENDCHAR
STARTCHAR icircumflex
ENCODING 148
SWIDTH 278 0
DWIDTH 5 0
BBX 4 12 0 0
BITMAP
40
A0
10
00
60
E0
60
60
60
60
60
F0
ENDCHAR
STARTCHAR idieresis
ENCODING 149
SWIDTH 278 0
DWIDTH 5 0
BBX 4 10 0 0
BITMAP
A0
00
60
E0
60
60
60
60
60
F0
ENDCHAR
STARTCHAR ntilde
ENCODING 150
SWIDTH 500 0
DWIDTH 9 0
BBX 9 11 0 0
BITMAP
3200
4C00
0000
2E00
F300
6300
6300
6300
6300
6300
F780
ENDCHAR
STARTCHAR oacute
ENCODING 151
SWIDTH 500 0
DWIDTH 9 0
BBX 8 11 0 0
BITMAP
08
10
00
3C
66
C3
C3
C3
C3
66
3C
ENDCHAR
STARTCHAR ograve
ENCODING 152
SWIDTH 500 0
DWIDTH 9 0
BBX 8 11 0 0
BITMAP
20
10
00
3C
66
C3
C3
C3
C3
66
3C
ENDCHAR
STARTCHAR ocircumflex
ENCODING 153
SWIDTH 500 0
DWIDTH 9 0
BBX 8 12 0 0
BITMAP
10
28
44
00
3C
66
C3
C3
C3
C3
66
3C
ENDCHAR
STARTCHAR odieresis
ENCODING 154
SWIDTH 500 0
DWIDTH 9 0
BBX 8 10 0 0
BITMAP
24
00
3C
66
C3
C3
C3
C3
66
3C
ENDCHAR
STARTCHAR otilde
ENCODING 155
SWIDTH 500 0
DWIDTH 9 0
BBX 8 11 0 0
BITMAP
32
4C
00
3C
66
C3
C3
C3
C3
66
3C
ENDCHAR
STARTCHAR uacute
ENCODING 156
SWIDTH 500 0
DWIDTH 9 0
BBX 9 11 0 0
BITMAP
0800
1000
0000
E700
6300
6300
6300
6300
6300
6780
3B00
ENDCHAR
STARTCHAR ugrave
ENCODING 157
SWIDTH 500 0
DWIDTH 9 0
BBX 9 11 0 0
BITMAP
1000
0800
0000
E700
6300
6300
6300
6300
6300
6780
3B00
ENDCHAR
STARTCHAR ucircumflex
ENCODING 158
SWIDTH 500 0
DWIDTH 9 0
BBX 9 12 0 0
BITMAP
0800
1400
2200
0000
E700
6300
6300
6300
6300
6300
6780
3B00
ENDCHAR
STARTCHAR udieresis
ENCODING 159
SWIDTH 500 0
DWIDTH 9 0
BBX 9 10 0 0
BITMAP
2400
0000
E700
6300
6300
6300
6300
6300
6780
3B00
ENDCHAR
STARTCHAR dagger
ENCODING 160
SWIDTH 500 0
DWIDTH 9 0
BBX 5 14 2 -1
BITMAP
20
20
20
20
F8
20
20
20
20
20
20
20
20
20
ENDCHAR
STARTCHAR degree
ENCODING 161
SWIDTH 400 0
DWIDTH 6 0
BBX 4 4 0 8
BITMAP
60
90
90
60
ENDCHAR
STARTCHAR cent
ENCODING 162
SWIDTH 500 0
DWIDTH 9 0
BBX 7 12 1 -2
BITMAP
04
04
3C
4E
CA
C8
D0
D0
56
3C
20
20
ENDCHAR
STARTCHAR sterling
ENCODING 163
SWIDTH 500 0
DWIDTH 9 0
BBX 8 12 0 0
BITMAP
1C
26
62
60
60
F8
60
60
60
61
63
FE
ENDCHAR
STARTCHAR section
ENCODING 164
SWIDTH 500 0
DWIDTH 9 0
BBX 7 14 1 -1
BITMAP
38
4C
44
60
B8
9C
86
C2
72
3A
0C
44
64
38
ENDCHAR
STARTCHAR bullet
ENCODING 165
SWIDTH 350 0
DWIDTH 6 0
BBX 5 5 0 4
BITMAP
70
F8
F8
F8
70
ENDCHAR
STARTCHAR paragraph
ENCODING 166
SWIDTH 453 0
DWIDTH 8 0
BBX 7 16 0 -4
BITMAP
3E
74
F4
F4
F4
F4
74
34
14
14
14
14
14
14
14
14
ENDCHAR
STARTCHAR germandbls
ENCODING 167
SWIDTH 500 0
DWIDTH 9 0
BBX 8 12 0 0
BITMAP
7C
E6
C6
C6
CC
DE
C7
C3
C3
D3
D2
CC
ENDCHAR
STARTCHAR registered
ENCODING 168
SWIDTH 760 0
DWIDTH 14 0
BBX 12 12 1 0
BITMAP
0F00
30C0
6060
5E20
8910
8910
8E10
8910
5CA0
6060
30C0
0F00
ENDCHAR
STARTCHAR copyright
ENCODING 169
SWIDTH 760 0
DWIDTH 14 0
BBX 12 12 1 0
BITMAP
0F00
30C0
6060
4720
8910
9010
9010
8910
4620
6060
30C0
0F00
ENDCHAR
STARTCHAR trademark
ENCODING 170
SWIDTH 980 0
DWIDTH 16 0
BBX 15 6 0 6
BITMAP
FB0E
A98C
21D4
2174
2124
738E
ENDCHAR
STARTCHAR acute
ENCODING 171
SWIDTH 333 0
DWIDTH 6 0
BBX 3 3 1 9
BITMAP
20
40
80
ENDCHAR
STARTCHAR dieresis
ENCODING 172
SWIDTH 333 0
DWIDTH 6 0
BBX 4 2 1 10
BITMAP
90
90
ENDCHAR
STARTCHAR notequal
ENCODING 173
SWIDTH 549 0
DWIDTH 10 0
BBX 9 9 0 0
BITMAP
0300
0600
FF80
0C00
1800
3000
FF80
6000
C000
ENDCHAR
STARTCHAR AE
ENCODING 174
SWIDTH 889 0
DWIDTH 16 0
BBX 14 12 1 0
BITMAP
03FC
038C
0584
0580
0988
09F8
1F88
1180
2180
2184
418C
E3FC
ENDCHAR
STARTCHAR Oslash
ENCODING 175
SWIDTH 722 0
DWIDTH 13 0
BBX 12 12 0 0
BITMAP
0F60
30C0
60E0
61A0
C330
C630
C430
CC30
5860
7060
3080
6F00
ENDCHAR
STARTCHAR infinity
ENCODING 176
SWIDTH 713 0
DWIDTH 13 0
BBX 12 5 0 3
BITMAP
70E0
D9B0
8610
D9B0
70E0
ENDCHAR
STARTCHAR plusminus
ENCODING 177
SWIDTH 549 0
DWIDTH 10 0
BBX 8 9 0 0
BITMAP
18
18
18
18
FF
18
18
18
FF
ENDCHAR
STARTCHAR lessequal
ENCODING 178
SWIDTH 549 0
DWIDTH 10 0
BBX 8 8 1 0
BITMAP
03
0E
38
E0
38
0E
03
FF
ENDCHAR
STARTCHAR greaterequal
ENCODING 179
SWIDTH 549 0
DWIDTH 10 0
BBX 8 8 1 0
BITMAP
C0
70
1C
07
1C
70
C0
FF
ENDCHAR
STARTCHAR yen
ENCODING 180
SWIDTH 500 0
DWIDTH 9 0
BBX 9 12 0 0
BITMAP
FB80
6100
3200
1A00
3F00
0C00
3F00
0C00
0C00
0C00
0C00
1E00
ENDCHAR
STARTCHAR mu
ENCODING 181
SWIDTH 576 0
DWIDTH 10 0
BBX 9 11 0 -3
BITMAP
C600
C600
C600
C600
C600
C680
C780
FB00
C000
C000
C000
ENDCHAR
STARTCHAR partialdiff
ENCODING 182
SWIDTH 494 0
DWIDTH 9 0
BBX 7 12 1 0
BITMAP
38
4C
06
06
06
3E
7E
E6
C6
C6
4C
38
ENDCHAR
STARTCHAR summation
ENCODING 183
SWIDTH 713 0
DWIDTH 13 0
BBX 10 13 1 -1
BITMAP
FF00
6080
3000
1800
0C00
0600
0400
0800
1000
2000
4040
FF80
FF00
ENDCHAR
STARTCHAR product
ENCODING 184
SWIDTH 823 0
DWIDTH 15 0
BBX 11 13 2 -1
BITMAP
FFE0
60C0
60C0
60C0
60C0
60C0
60C0
60C0
60C0
60C0
60C0
60C0
F1E0
ENDCHAR
STARTCHAR pi
ENCODING 185
SWIDTH 549 0
DWIDTH 9 0
BBX 9 8 0 0
BITMAP
7F00
E600
6600
6600
6600
6600
6680
6300
ENDCHAR
STARTCHAR integral
ENCODING 186
SWIDTH 274 0
DWIDTH 5 0
BBX 6 16 -1 -4
BITMAP
0C
14
30
30
30
30
30
30
30
30
30
30
30
30
B0
60
ENDCHAR
STARTCHAR ordfeminine
ENCODING 187
SWIDTH 276 0
DWIDTH 5 0
BBX 4 7 0 5
BITMAP
60
90
70
90
70
00
F0
ENDCHAR
STARTCHAR ordmasculine
ENCODING 188
SWIDTH 310 0
DWIDTH 6 0
BBX 4 7 1 5
BITMAP
60
90
90
90
60
00
F0
ENDCHAR
STARTCHAR Omega
ENCODING 189
SWIDTH 768 0
DWIDTH 14 0
BBX 12 12 1 0
BITMAP
0F00
30C0
6060
C030
C030
C030
4020
6060
30C0
1080
4920
79E0
ENDCHAR
STARTCHAR ae
ENCODING 190
SWIDTH 667 0
DWIDTH 12 0
BBX 10 8 1 0
BITMAP
7B80
CE40
0E40
1FC0
6600
C640
CBC0
7180
ENDCHAR
STARTCHAR oslash
ENCODING 191
SWIDTH 500 0
DWIDTH 9 0
BBX 8 8 0 0
BITMAP
3D
66
CB
CB
D3
F3
66
BC
ENDCHAR
STARTCHAR questiondown
ENCODING 192
SWIDTH 444 0
DWIDTH 8 0
BBX 7 12 1 -4
BITMAP
30
30
00
10
10
20
60
C6
C6
C2
E4
78
ENDCHAR
STARTCHAR exclamdown
ENCODING 193
SWIDTH 333 0
DWIDTH 6 0
BBX 2 12 2 -4
BITMAP
C0
C0
00
00
C0
C0
C0
C0
C0
C0
C0
C0
ENDCHAR
STARTCHAR logicalnot
ENCODING 194
SWIDTH 564 0
DWIDTH 13 0
BBX 10 4 1 1
BITMAP
FFC0
00C0
00C0
00C0
ENDCHAR
STARTCHAR radical
ENCODING 195
SWIDTH 549 0
DWIDTH 10 0
BBX 10 14 0 0
BITMAP
0040
00C0
0080
0180
0100
0300
0200
0600
C400
6C00
2800
3800
1000
1000
ENDCHAR
STARTCHAR florin
ENCODING 196
SWIDTH 500 0
DWIDTH 9 0
BBX 6 16 1 -4
BITMAP
0C
10
30
30
FC
30
30
30
30
30
30
30
30
30
20
C0
ENDCHAR
STARTCHAR approxequal
ENCODING 197
SWIDTH 549 0
DWIDTH 10 0
BBX 8 5 1 1
BITMAP
79
9E
00
79
9E
ENDCHAR
STARTCHAR Delta
ENCODING 198
SWIDTH 612 0
DWIDTH 11 0
BBX 11 12 0 0
BITMAP
0400
0400
0E00
0A00
1300
1100
2180
2080
40C0
4040
8060
FFE0
ENDCHAR
STARTCHAR guillemotleft
ENCODING 199
SWIDTH 500 0
DWIDTH 9 0
BBX 9 7 0 1
BITMAP
1980
3300
6600
CC00
6600
3300
1980
ENDCHAR
STARTCHAR guillemotright
ENCODING 200
SWIDTH 500 0
DWIDTH 9 0
BBX 9 7 0 1
BITMAP
CC00
6600
3300
1980
3300
6600
CC00
ENDCHAR
STARTCHAR ellipsis
ENCODING 201
SWIDTH 1000 0
DWIDTH 18 0
BBX 14 2 2 0
BITMAP
C30C
C30C
ENDCHAR
STARTCHAR nbspace
ENCODING 202
SWIDTH 250 0
DWIDTH 9 0
BBX 0 0 0 -4
BITMAP
ENDCHAR
STARTCHAR Agrave
ENCODING 203
SWIDTH 722 0
DWIDTH 13 0
BBX 12 14 0 0
BITMAP
0400
0200
0300
0200
0700
0700
0980
0980
10C0
1FC0
20C0
2060
4060
E0F0
ENDCHAR
STARTCHAR Atilde
ENCODING 204
SWIDTH 722 0
DWIDTH 13 0
BBX 12 14 0 0
BITMAP
0640
0980
0200
0200
0700
0700
0980
0980
10C0
1FC0
20C0
2060
4060
E0F0
ENDCHAR
STARTCHAR Otilde
ENCODING 205
SWIDTH 722 0
DWIDTH 13 0
BBX 12 14 0 0
BITMAP
0C80
1300
0F00
30C0
6060
6060
C030
C030
C030
C030
6060
6060
30C0
0F00
ENDCHAR
STARTCHAR OE
ENCODING 206
SWIDTH 889 0
DWIDTH 16 0
BBX 15 12 0 0
BITMAP
0FFE
31C6
60C2
60C0
C0C4
C0FC
C0C4
C0C0
60C0
60C2
31C6
0FFE
ENDCHAR
STARTCHAR oe
ENCODING 207
SWIDTH 722 0
DWIDTH 13 0
BBX 11 8 1 0
BITMAP
39C0
6760
C7E0
C600
C600
C620
67E0
39C0
ENDCHAR
STARTCHAR endash
ENCODING 208
SWIDTH 500 0
DWIDTH 9 0
BBX 8 1 0 4
BITMAP
FF
ENDCHAR
STARTCHAR emdash
ENCODING 209
SWIDTH 1000 0
DWIDTH 18 0
BBX 14 1 2 4
BITMAP
FFFC
ENDCHAR
STARTCHAR quotedblleft
ENCODING 210
SWIDTH 444 0
DWIDTH 8 0
BBX 6 5 1 7
BITMAP
44
88
88
CC
CC
ENDCHAR
STARTCHAR quotedblright
ENCODING 211
SWIDTH 444 0
DWIDTH 8 0
BBX 6 5 1 7
BITMAP
CC
CC
44
44
88
ENDCHAR
STARTCHAR quoteleft
ENCODING 212
SWIDTH 333 0
DWIDTH 6 0
BBX 2 5 2 7
BITMAP
40
80
80
C0
C0
ENDCHAR
STARTCHAR quoteright
ENCODING 213
SWIDTH 333 0
DWIDTH 6 0
BBX 2 5 2 7
BITMAP
C0
C0
40
40
80
ENDCHAR
STARTCHAR divide
ENCODING 214
SWIDTH 549 0
DWIDTH 10 0
BBX 8 7 0 1
BITMAP
18
18
00
FF
00
18
18
ENDCHAR
STARTCHAR lozenge
ENCODING 215
SWIDTH 494 0
DWIDTH 9 0
BBX 8 12 1 0
BITMAP
10
10
38
2C
44
86
83
46
2C
28
18
10
ENDCHAR
STARTCHAR ydieresis
ENCODING 216
SWIDTH 500 0
DWIDTH 9 0
BBX 9 14 0 -4
BITMAP
1200
0000
F380
6100
6100
3200
3200
1C00
1C00
0800
0800
1000
D000
E000
ENDCHAR
STARTCHAR Ydieresis
ENCODING 217
SWIDTH 722 0
DWIDTH 13 0
BBX 10 14 1 0
BITMAP
1100
0000
F1C0
6080
3100
3100
1A00
1E00
0C00
0C00
0C00
0C00
0C00
1E00
ENDCHAR
STARTCHAR fraction
ENCODING 218
SWIDTH 167 0
DWIDTH 3 0
BBX 2 12 0 0
BITMAP
40
40
40
40
40
40
80
80
80
80
80
80
ENDCHAR
STARTCHAR currency
ENCODING 219
SWIDTH 500 0
DWIDTH 9 0
BBX 7 7 1 2
BITMAP
BA
6C
C6
C6
C6
6C
BA
ENDCHAR
STARTCHAR guilsinglleft
ENCODING 220
SWIDTH 333 0
DWIDTH 6 0
BBX 5 7 1 1
BITMAP
18
30
60
C0
60
30
18
ENDCHAR
STARTCHAR guilsinglright
ENCODING 221
SWIDTH 333 0
DWIDTH 6 0
BBX 5 7 1 1
BITMAP
C0
60
30
18
30
60
C0
ENDCHAR
STARTCHAR fi
ENCODING 222
SWIDTH 556 0
DWIDTH 10 0
BBX 9 12 0 0
BITMAP
3C00
6600
6000
6000
FF00
6300
6300
6300
6300
6300
6300
F780
ENDCHAR
STARTCHAR fl
ENCODING 223
SWIDTH 556 0
DWIDTH 10 0
BBX 9 12 0 0
BITMAP
3B00
6700
6300
6300
FF00
6300
6300
6300
6300
6300
6300
F780
ENDCHAR
STARTCHAR daggerdbl
ENCODING 224
SWIDTH 500 0
DWIDTH 9 0
BBX 6 14 1 -1
BITMAP
30
30
30
30
FC
30
30
30
30
FC
30
30
30
30
ENDCHAR
STARTCHAR periodcentered
ENCODING 225
SWIDTH 250 0
DWIDTH 6 0
BBX 2 2 2 5
BITMAP
C0
C0
ENDCHAR
STARTCHAR quotesinglbase
ENCODING 226
SWIDTH 333 0
DWIDTH 6 0
BBX 2 5 2 -3
BITMAP
C0
C0
40
40
80
ENDCHAR
STARTCHAR quotedblbase
ENCODING 227
SWIDTH 444 0
DWIDTH 8 0
BBX 6 5 1 -3
BITMAP
CC
CC
44
44
88
ENDCHAR
STARTCHAR perthousand
ENCODING 228
SWIDTH 1000 0
DWIDTH 18 0
BBX 18 12 0 0
BITMAP
3BE000
644000
C48000
C50000
C90000
720000
04E380
059640
0B1C40
131C40
132C80
21C700
ENDCHAR
STARTCHAR Acircumflex
ENCODING 229
SWIDTH 722 0
DWIDTH 13 0
BBX 12 14 0 0
BITMAP
0200
0500
0A80
0200
0700
0700
0980
0980
10C0
1FC0
20C0
2060
4060
E0F0
ENDCHAR
STARTCHAR Ecircumflex
ENCODING 230
SWIDTH 611 0
DWIDTH 11 0
BBX 9 14 1 0
BITMAP
0800
1400
FF80
6180
6080
6000
6100
7F00
6100
6000
6000
6080
6180
FF80
ENDCHAR
STARTCHAR Aacute
ENCODING 231
SWIDTH 722 0
DWIDTH 13 0
BBX 12 14 0 0
BITMAP
0100
0200
0600
0200
0700
0700
0980
0980
10C0
1FC0
20C0
2060
4060
E0F0
ENDCHAR
STARTCHAR Edieresis
ENCODING 232
SWIDTH 611 0
DWIDTH 11 0
BBX 9 14 1 0
BITMAP
1200
0000
FF80
6180
6080
6000
6100
7F00
6100
6000
6000
6080
6180
FF80
ENDCHAR
STARTCHAR Egrave
ENCODING 233
SWIDTH 611 0
DWIDTH 11 0
BBX 9 14 1 0
BITMAP
1000
0800
FF80
6180
6080
6000
6100
7F00
6100
6000
6000
6080
6180
FF80
ENDCHAR
STARTCHAR Iacute
ENCODING 234
SWIDTH 333 0
DWIDTH 6 0
BBX 4 14 1 0
BITMAP
10
20
F0
60
60
60
60
60
60
60
60
60
60
F0
ENDCHAR
STARTCHAR Icircumflex
ENCODING 235
SWIDTH 333 0
DWIDTH 6 0
BBX 4 14 1 0
BITMAP
60
90
F0
60
60
60
60
60
60
60
60
60
60
F0
ENDCHAR
STARTCHAR Idieresis
ENCODING 236
SWIDTH 333 0
DWIDTH 6 0
BBX 4 14 1 0
BITMAP
90
00
F0
60
60
60
60
60
60
60
60
60
60
F0
ENDCHAR
STARTCHAR Igrave
ENCODING 237
SWIDTH 333 0
DWIDTH 6 0
BBX 4 14 1 0
BITMAP
40
20
F0
60
60
60
60
60
60
60
60
60
60
F0
ENDCHAR
STARTCHAR Oacute
ENCODING 238
SWIDTH 722 0
DWIDTH 13 0
BBX 12 14 0 0
BITMAP
0200
0400
0F00
30C0
6060
6060
C030
C030
C030
C030
6060
6060
30C0
0F00
ENDCHAR
STARTCHAR Ocircumflex
ENCODING 239
SWIDTH 722 0
DWIDTH 13 0
BBX 12 14 0 0
BITMAP
0600
0900
0F00
30C0
6060
6060
C030
C030
C030
C030
6060
6060
30C0
0F00
ENDCHAR
STARTCHAR apple
ENCODING 240
SWIDTH 790 0
DWIDTH 14 0
BBX 11 13 1 0
BITMAP
0300
0600
35C0
7FE0
FFE0
FF80
FF80
FF80
FFE0
7FE0
7FC0
3FC0
1D80
ENDCHAR
STARTCHAR Ograve
ENCODING 241
SWIDTH 722 0
DWIDTH 13 0
BBX 12 14 0 0
BITMAP
0800
0400
0F00
30C0
6060
6060
C030
C030
C030
C030
6060
6060
30C0
0F00
ENDCHAR
STARTCHAR Uacute
ENCODING 242
SWIDTH 722 0
DWIDTH 13 0
BBX 11 14 1 0
BITMAP
0200
0400
F0E0
6040
6040
6040
6040
6040
6040
6040
6040
70C0
3980
1F00
ENDCHAR
STARTCHAR Ucircumflex
ENCODING 243
SWIDTH 722 0
DWIDTH 13 0
BBX 11 14 1 0
BITMAP
0400
0A00
F1E0
6040
6040
6040
6040
6040
6040
6040
6040
70C0
3980
1F00
ENDCHAR
STARTCHAR Ugrave
ENCODING 244
SWIDTH 722 0
DWIDTH 13 0
BBX 11 14 1 0
BITMAP
0800
0400
F1E0
6040
6040
6040
6040
6040
6040
6040
6040
70C0
3980
1F00
ENDCHAR
STARTCHAR dotlessi
ENCODING 245
SWIDTH 278 0
DWIDTH 5 0
BBX 4 8 0 0
BITMAP
60
E0
60
60
60
60
60
F0
ENDCHAR
STARTCHAR circumflex
ENCODING 246
SWIDTH 333 0
DWIDTH 6 0
BBX 5 4 0 9
BITMAP
20
70
D8
88
ENDCHAR
STARTCHAR tilde
ENCODING 247
SWIDTH 333 0
DWIDTH 6 0
BBX 5 2 0 10
BITMAP
68
B0
ENDCHAR
STARTCHAR macron
ENCODING 248
SWIDTH 333 0
DWIDTH 6 0
BBX 4 1 1 10
BITMAP
F0
ENDCHAR
STARTCHAR breve
ENCODING 249
SWIDTH 333 0
DWIDTH 6 0
BBX 5 2 0 10
BITMAP
88
70
ENDCHAR
STARTCHAR dotaccent
ENCODING 250
SWIDTH 333 0
DWIDTH 6 0
BBX 1 1 2 10
BITMAP
80
ENDCHAR
STARTCHAR ring
ENCODING 251
SWIDTH 333 0
DWIDTH 6 0
BBX 4 4 0 8
BITMAP
60
90
90
60
ENDCHAR
STARTCHAR cedilla
ENCODING 252
SWIDTH 333 0
DWIDTH 6 0
BBX 3 5 1 -4
BITMAP
C0
C0
60
60
C0
ENDCHAR
STARTCHAR hungarumlaut
ENCODING 253
SWIDTH 333 0
DWIDTH 6 0
BBX 5 2 0 10
BITMAP
48
90
ENDCHAR
STARTCHAR ogonek
ENCODING 254
SWIDTH 333 0
DWIDTH 6 0
BBX 4 4 1 -4
BITMAP
60
C0
D0
60
ENDCHAR
STARTCHAR caron
ENCODING 255
SWIDTH 333 0
DWIDTH 7 0
BBX 5 3 1 10
BITMAP
D8
70
20
ENDCHAR
ENDFONT
